<svg width="512" height="512" viewBox="0 0 512 512" fill="none" xmlns="http://www.w3.org/2000/svg" role="img" aria-label="Emblema Studio Nakaipon">
  <rect width="512" height="512" rx="256" fill="#0B0C0F"/>
  <circle cx="256" cy="256" r="218" fill="#FFFAF0"/>
  <circle cx="256" cy="256" r="190" fill="#A82020"/>
  <circle cx="256" cy="256" r="166" fill="#0B0C0F"/>
  <path d="M256 91c28 49 78 83 136 93-40 43-57 103-45 160-54-24-117-24-171 0 12-57-5-117-45-160 58-10 108-44 125-93Z" fill="#FFFAF0"/>
  <path d="M256 116c20 37 58 63 101 72-30 31-43 77-34 119-40-18-94-18-134 0 9-42-4-88-34-119 43-9 81-35 101-72Z" fill="#BD8B2D"/>
  <path d="M172 370h168" stroke="#FFFAF0" stroke-width="22" stroke-linecap="round"/>
  <path d="M197 414h118" stroke="#FFFAF0" stroke-width="18" stroke-linecap="round"/>
  <path d="M256 169v176" stroke="#0B0C0F" stroke-width="26" stroke-linecap="round"/>
  <path d="M198 228h116" stroke="#0B0C0F" stroke-width="26" stroke-linecap="round"/>
  <path d="M211 288h90" stroke="#0B0C0F" stroke-width="24" stroke-linecap="round"/>
</svg>
